<?xml version="1.0" encoding="UTF-8"?>
<!DOCTYPE svg PUBLIC "-//W3C//DTD SVG 1.1//EN" "http://www.w3.org/Graphics/SVG/1.1/DTD/svg11.dtd">
<!-- Creator: CorelDRAW -->
<svg xmlns="http://www.w3.org/2000/svg" xml:space="preserve" width="6.82666in" height="6.82666in" style="shape-rendering:geometricPrecision; text-rendering:geometricPrecision; image-rendering:optimizeQuality; fill-rule:evenodd; clip-rule:evenodd"
viewBox="0 0 6.82666 6.82666"
 xmlns:xlink="http://www.w3.org/1999/xlink">
 <defs>
  <style type="text/css">
   <![CDATA[
    .fil0 {fill:#009688}
    .fil1 {fill:#FFFFFE;fill-rule:nonzero}
   ]]>
  </style>
 </defs>
 <g id="Layer_x0020_1">
  <metadata id="CorelCorpID_0Corel-Layer"/>
  <g id="_464622144">
   <rect id="_464619024" class="fil0" width="6.82666" height="6.82666"/>
   <rect id="_464623200" class="fil0" x="0.853331" y="0.853331" width="5.12" height="5.12"/>
  </g>
  <g id="_464622096">
   <g>
    <path id="_464624952" class="fil1" d="M5.88187 4.97545c0.0352087,-0.0469449 0.0256929,-0.113547 -0.021252,-0.148756 -0.0469449,-0.0352087 -0.113547,-0.0256929 -0.148756,0.021252 -0.0564488,0.0753425 -0.11685,0.129906 -0.180449,0.167201 -0.060622,0.0355472 -0.125457,0.0558346 -0.193547,0.0639016l-4.02588 -0.00137008c-0.0680236,-0.00804724 -0.132957,-0.0281496 -0.193917,-0.0636417 -0.0635118,-0.0369724 -0.12374,-0.0910787 -0.179941,-0.166091 -0.0352087,-0.0469449 -0.101811,-0.0564606 -0.148756,-0.021252 -0.0469449,0.0352087 -0.0564606,0.101811 -0.021252,0.148756 0.0743386,0.0992205 0.15587,0.171874 0.24328,0.22276 0.0866614,0.0504567 0.178169,0.079122 0.273465,0.090689 0.00616535,0.00111024 0.0125197,0.00169685 0.0190079,0.00169685l4.03235 0.000956693c0.00703937,0.000633858 0.014248,0.000574803 0.0215472,-0.000240157l-2.3622e-005 -0.000192913c0.0978071,-0.0109685 0.191913,-0.0402913 0.281177,-0.0926339 0.0874213,-0.0512677 0.168862,-0.124146 0.242953,-0.223035z"/>
    <g>
     <path id="_464618952" class="fil1" d="M5.43931 2.81445c-0.0589094,0 -0.106669,0.0477598 -0.106669,0.106669 0,0.0589094 0.0477598,0.106669 0.106669,0.106669l0.170886 0c0.0703583,0 0.134406,0.0288622 0.180898,0.0753543 0.0465,0.0464961 0.0753661,0.110543 0.0753661,0.18089l0 0.347854c0,0.13689 -0.0560945,0.261437 -0.146449,0.351795 -0.0903543,0.0903543 -0.214894,0.146449 -0.351787,0.146449l-0.491957 0c-0.0589094,0 -0.106669,0.0477598 -0.106669,0.106669 0,0.0589094 0.0477598,0.106669 0.106669,0.106669l0.491957 0c0.19578,0 0.373701,-0.0800315 0.502622,-0.208953 0.128921,-0.128925 0.208953,-0.306854 0.208953,-0.50263l0 -0.347854c0,-0.129236 -0.0528031,-0.246661 -0.13787,-0.331724 -0.0850591,-0.0850551 -0.202484,-0.137858 -0.331732,-0.137858l-0.170886 0z"/>
     <path id="_464620176" class="fil1" d="M5.54689 2.78804c0,0.613539 -0.248701,1.16901 -0.65078,1.57109 -0.402079,0.402079 -0.957555,0.650776 -1.5711,0.650776 -0.613535,0 -1.169,-0.248697 -1.57109,-0.650776 -0.402079,-0.402083 -0.650776,-0.957551 -0.650776,-1.57109 0,-0.0589094 0.0477598,-0.106669 0.106669,-0.106669l4.23041 0c0.0589094,0 0.106669,0.0477598 0.106669,0.106669zm-0.801614 1.42026c0.340012,-0.340012 0.558669,-0.80139 0.585472,-1.31359l-4.01146 0c0.0268031,0.512193 0.245457,0.973571 0.585469,1.31359 0.363465,0.363461 0.865602,0.588272 1.42025,0.588272 0.554661,0 1.05681,-0.224811 1.42027,-0.588272z"/>
    </g>
   </g>
   <g>
    <path id="_464624208" class="fil1" d="M2.78488 1.85715c0.0533858,-0.024622 0.0767047,-0.0878622 0.0520827,-0.141248 -0.024622,-0.0533858 -0.0878622,-0.0767047 -0.141248,-0.0520827 -0.165638,0.0762795 -0.126039,0.267524 -0.0825827,0.477441 0.026315,0.12711 0.0546142,0.263811 0.0271654,0.339673 -0.0200197,0.0552283 0.00851969,0.116232 0.063748,0.136252 0.0552283,0.0200197 0.116232,-0.00851969 0.136252,-0.063748 0.0478937,-0.132358 0.0133189,-0.299382 -0.0188346,-0.454681 -0.0255591,-0.123465 -0.0488504,-0.235957 -0.0365827,-0.241606z"/>
    <path id="_464626200" class="fil1" d="M3.48425 1.63135c0.0533858,-0.024622 0.0767047,-0.0878622 0.0520827,-0.141248 -0.024622,-0.0533858 -0.0878622,-0.0767047 -0.141248,-0.0520827 -0.192177,0.0885 -0.143201,0.325063 -0.0894449,0.58472 0.0350394,0.169252 0.0727205,0.351268 0.0340276,0.458197 -0.0200197,0.0552283 0.00851969,0.116232 0.063748,0.136252 0.0552283,0.0200197 0.116232,-0.00851969 0.136252,-0.063748 0.0591378,-0.163421 0.0151811,-0.37576 -0.0256969,-0.573205 -0.0358583,-0.173209 -0.0685276,-0.331016 -0.0297205,-0.348886z"/>
    <path id="_464622840" class="fil1" d="M4.17153 1.85715c0.0533858,-0.024622 0.0767047,-0.0878622 0.0520827,-0.141248 -0.024622,-0.0533858 -0.0878622,-0.0767047 -0.141248,-0.0520827 -0.165634,0.0762756 -0.126039,0.267524 -0.0825827,0.477441 0.026315,0.12711 0.0546142,0.263811 0.0271654,0.339673 -0.0200197,0.0552283 0.00851969,0.116232 0.063748,0.136252 0.0552283,0.0200197 0.116232,-0.00851969 0.136252,-0.063748 0.0478937,-0.132358 0.0133189,-0.299382 -0.0188346,-0.454681 -0.0255591,-0.123465 -0.0488504,-0.235957 -0.0365827,-0.241606z"/>
   </g>
  </g>
 </g>
</svg>
